<?xml version="1.0" encoding="utf-8"?><!-- Uploaded to: SVG Repo, www.svgrepo.com, Generator: SVG Repo Mixer Tools -->
<svg width="800px" height="800px" viewBox="0 0 24 24" fill="none" xmlns="http://www.w3.org/2000/svg">
<path d="M5.97932 1.79774C5.86553 1.26365 5.33156 0.908714 4.79462 1.02138C4.25411 1.1348 3.90788 1.66492 4.0213 2.20543C4.13267 2.73319 4.27729 3.25512 4.42998 3.77208C4.70346 4.69802 5.12434 5.94648 5.71222 7.21786C6.29672 8.48191 7.06715 9.81462 8.05731 10.8752C9.05 11.9384 10.3242 12.7899 11.8992 12.9331C12.8223 13.017 13.6703 13.5254 14.4601 14.38C14.6387 14.5732 14.811 14.7808 14.9769 15H13C12.4477 15 12 15.4477 12 16C12 16.5523 12.4477 17 13 17H16.1946C16.2866 17.1836 16.3753 17.3693 16.4609 17.5559C16.6774 18.028 16.8802 18.5103 17.067 19H12C11.4477 19 11 19.4477 11 20C11 20.5523 11.4477 21 12 21H17.7257C17.8365 21.3997 17.9354 21.8018 18.0212 22.2048C18.1344 22.7452 18.6643 23.0919 19.2048 22.9789C19.7453 22.8658 20.0919 22.3359 19.9788 21.7953C19.6108 20.0559 19.0185 18.3352 18.2789 16.7222C17.6923 15.4431 16.92 14.095 15.9289 13.0225C15.5838 12.6491 15.2044 12.3012 14.79 12.0001C15.2044 11.6991 15.5838 11.3511 15.9289 10.9777C16.92 9.90528 17.6923 8.5571 18.2789 7.27798C19.018 5.6661 19.6138 3.9442 19.9788 2.20494C20.0919 1.66436 19.7453 1.13445 19.2048 1.02135C18.6677 0.908989 18.1338 1.26425 18.0205 1.79855C17.6771 3.39108 17.1389 4.96585 16.4609 6.44433C15.9199 7.62412 15.2521 8.76326 14.4601 9.62025C13.8639 10.2653 13.009 11.0257 12.0803 10.9413C11.1554 10.8572 10.3058 10.3529 9.5192 9.5103C9.36925 9.34969 9.2238 9.17905 9.08286 9H11C11.5523 9 12 8.55229 12 8C12 7.44772 11.5523 7 11 7H7.82962C7.72485 6.79504 7.62416 6.5874 7.52755 6.37846C7.31185 5.91197 7.11983 5.44638 6.9507 5H12C12.5523 5 13 4.55228 13 4C13 3.44772 12.5523 3 12 3H6.28803C6.17338 2.60251 6.06677 2.20197 5.97932 1.79774Z" fill="#0F0F0F"/>
<path d="M4.02131 21.7947C3.90789 22.3352 4.25412 22.8653 4.79463 22.9788C5.33516 23.0922 5.86564 22.7337 5.98022 22.1982C6.15696 21.3898 6.39479 20.5925 6.66044 19.8094C7.13574 18.4084 7.85028 16.7057 8.82209 15.3479C9.14353 14.8988 9.04002 14.2741 8.59091 13.9527C8.1418 13.6313 7.51715 13.7348 7.19572 14.1839C6.0582 15.7732 5.26828 17.6877 4.76646 19.1669C4.47462 20.0272 4.20945 20.9049 4.02131 21.7947Z" fill="#0F0F0F"/>
</svg>