<?xml version="1.0" ?>
<!-- Uploaded to: SVG Repo, www.svgrepo.com, Generator: SVG Repo Mixer Tools -->
<svg fill="#000000" width="800px" height="800px" viewBox="0 0 64 64" id="Layer_1_1_" version="1.1" xml:space="preserve" xmlns="http://www.w3.org/2000/svg" xmlns:xlink="http://www.w3.org/1999/xlink">
<g>
<path d="M23,51h-2c0,4.337,5.037,8,11,8v-2C27.206,57,23,54.196,23,51z"/>
<path d="M33.841,56.865l0.291,1.979c0.786-0.115,1.561-0.297,2.302-0.54l-0.621-1.9C35.178,56.61,34.515,56.766,33.841,56.865z"/>
<path d="M32,45c-2.289,0-4-1.056-4-2h-2c0,2.243,2.636,4,6,4s6-1.757,6-4h-2C36,43.944,34.289,45,32,45z"/>
<path d="M15,43c0,0.408-0.779,1-2,1s-2-0.592-2-1H9c0,1.683,1.757,3,4,3s4-1.317,4-3H15z"/>
<path d="M51,39c-3.389,0-6.541,1.171-8.808,3.221C39.513,40.229,35.937,39,32,39c-3.937,0-7.513,1.229-10.192,3.221   C19.54,40.17,16.389,39,13,39C6.383,39,1,43.486,1,49s5.383,10,12,10c2.289,0,4.478-0.527,6.387-1.529   C22.058,60.791,26.708,63,32,63c5.292,0,9.942-2.209,12.613-5.529C46.522,58.473,48.712,59,51,59c6.617,0,12-4.486,12-10   S57.617,39,51,39z M13,57c-5.514,0-10-3.589-10-8s4.486-8,10-8c2.798,0,5.396,0.912,7.283,2.527C18.234,45.58,17,48.175,17,51   c0,1.698,0.449,3.313,1.248,4.778C16.672,56.565,14.886,57,13,57z M32,61c-7.168,0-13-4.486-13-10s5.832-10,13-10s13,4.486,13,10   S39.168,61,32,61z M51,57c-1.885,0-3.67-0.435-5.248-1.222C46.551,54.312,47,52.698,47,51c0-2.825-1.234-5.42-3.283-7.473   C45.604,41.913,48.201,41,51,41c5.514,0,10,3.589,10,8S56.514,57,51,57z"/>
<path d="M51,44c-1.221,0-2-0.592-2-1h-2c0,1.683,1.757,3,4,3s4-1.317,4-3h-2C53,43.408,52.221,44,51,44z"/>
<path d="M31.546,37h0.908C39.924,37,46,30.923,46,23.454c0-3.101-1.077-6.134-3.032-8.542L32,1.414L21.032,14.913   C19.077,17.32,18,20.354,18,23.454C18,30.923,24.076,37,31.546,37z M22.585,16.173L32,4.586l9.415,11.587   C43.082,18.226,44,20.812,44,23.454C44,29.82,38.82,35,32.454,35h-0.908C25.18,35,20,29.82,20,23.454   C20,20.812,20.918,18.226,22.585,16.173z"/>
<rect height="2" width="2" x="31" y="25"/>
<path d="M25.005,26.919C25.004,26.946,25,26.973,25,27c0,3.309,3.141,6,7,6c3.473,0,6.356-2.182,6.9-5.029   C40.819,26.864,42,25.008,42,23c0-3.309-3.141-6-7-6c-0.629,0-1.239,0.077-1.821,0.212C31.974,16.441,30.519,16,29,16   c-3.859,0-7,2.691-7,6C22,23.978,23.14,25.806,25.005,26.919z M32,31c-2.757,0-5-1.794-5-4s2.243-4,5-4s5,1.794,5,4   S34.757,31,32,31z M40,23c0,0.955-0.446,1.867-1.205,2.583C38.049,22.957,35.289,21,32,21c-0.478,0-0.944,0.042-1.395,0.12   C31.451,19.859,33.104,19,35,19C37.757,19,40,20.794,40,23z M29,18c0.597,0,1.178,0.092,1.725,0.254   c-1.369,0.907-2.34,2.239-2.633,3.77c-1.174,0.68-2.09,1.659-2.612,2.807C24.549,24.087,24,23.069,24,22C24,19.794,26.243,18,29,18   z"/>
</g>
</svg>